<?xml version="1.0" encoding="utf-8"?>
<!-- Generator: Adobe Illustrator 19.0.0, SVG Export Plug-In . SVG Version: 6.00 Build 0)  -->
<svg version="1.1" id="图层_1" xmlns="http://www.w3.org/2000/svg" xmlns:xlink="http://www.w3.org/1999/xlink" x="0px" y="0px"
	 viewBox="0 0 20 20" style="enable-background:new 0 0 16 16;" xml:space="preserve">
<style type="text/css">
	.st0{fill:#808080;}
</style>
<g>
	<g>
		<path class="st0" d="M8,15.8c-0.1,0-0.2,0-0.2-0.1c-0.3-0.2-6.3-5.4-6.3-8.9c0-3.6,2.9-6.5,6.5-6.5c3.6,0,6.5,2.9,6.5,6.5
			c0,3.5-6,8.7-6.3,8.9C8.2,15.7,8.1,15.8,8,15.8L8,15.8z M8,0.9c-3.2,0-5.8,2.6-5.8,5.8C2.2,9.6,6.9,14,8,15c1.1-1,5.8-5.4,5.8-8.2
			C13.8,3.5,11.2,0.9,8,0.9L8,0.9z"/>
	</g>
	<g>
		<path class="st0" d="M8,9.8c-1.7,0-3-1.3-3-3c0-1.7,1.3-3,3-3c1.7,0,3,1.3,3,3C11,8.4,9.7,9.8,8,9.8L8,9.8z M8,4.4
			c-1.3,0-2.3,1-2.3,2.3c0,1.3,1,2.3,2.3,2.3c1.3,0,2.3-1,2.3-2.3C10.3,5.5,9.3,4.4,8,4.4L8,4.4z"/>
	</g>
</g>
</svg>
