<?xml version="1.0" encoding="utf-8"?>
<!-- Generated by IcoMoon.io -->
<!DOCTYPE svg PUBLIC "-//W3C//DTD SVG 1.1//EN" "http://www.w3.org/Graphics/SVG/1.1/DTD/svg11.dtd">
<svg version="1.1" xmlns="http://www.w3.org/2000/svg" xmlns:xlink="http://www.w3.org/1999/xlink" width="16" height="16" viewBox="0 0 16 16">
<path fill="#808080" d="M8 16c-0.103 0-0.206 0-0.206-0.103-0.31-0.206-6.503-5.574-6.503-9.187 0-3.716 2.994-6.71 6.71-6.71s6.71 2.994 6.71 6.71c0 3.613-6.194 8.981-6.503 9.187 0 0-0.103 0.103-0.206 0.103v0zM8 0.619c-3.303 0-5.987 2.684-5.987 5.987 0 2.994 4.852 7.535 5.987 8.568 1.135-1.032 5.987-5.574 5.987-8.465 0-3.406-2.684-6.090-5.987-6.090v0z"></path>
<path fill="#808080" d="M8 9.806c-1.755 0-3.097-1.342-3.097-3.097s1.342-3.097 3.097-3.097c1.755 0 3.097 1.342 3.097 3.097 0 1.652-1.342 3.097-3.097 3.097v0zM8 4.232c-1.342 0-2.374 1.032-2.374 2.374s1.032 2.374 2.374 2.374c1.342 0 2.374-1.032 2.374-2.374 0-1.239-1.032-2.374-2.374-2.374v0z"></path>
</svg>
