<?xml version="1.0" encoding="utf-8"?>
<!-- Generator: Adobe Illustrator 19.0.0, SVG Export Plug-In . SVG Version: 6.00 Build 0)  -->
<svg version="1.1" id="图层_1" xmlns="http://www.w3.org/2000/svg" xmlns:xlink="http://www.w3.org/1999/xlink" x="0px" y="0px"
	 viewBox="-233 400.9 127.8 40" style="enable-background:new -233 400.9 127.8 40;" xml:space="preserve">
<style type="text/css">
	.st0{enable-background:new    ;}
	.st1{fill:#FFFFFF;}
</style>
<g id="XMLID_1_" class="st0">
	<path class="st1" d="M-224.8,411.3c-0.1,0.2-0.2,0.4-0.3,0.7c-1.3,3.4-1.9,6.1-1.8,7.9c3.9-0.8,7-3.7,9.2-8.6
		c0.8-1.9,2-2.8,3.6-2.8c1.8,0.3,2.4,1.3,1.9,2.9c-1.3,3-3,5.3-5.2,7.1c3,2.3,4.9,5.5,5.7,9.5c0.2,2.3-0.6,3.5-2.2,3.6
		c-1.6-0.1-2.4-1.3-2.5-3.8c-0.2-2-1.1-4.7-2.8-8.2c-2.3,1.6-4.9,2.4-7.8,2.4c-0.1,1.1,0,2.4,0.1,3.8c0.3,1.4,0.6,2.6,1.1,3.8
		c0.3,1.3-0.1,2-1.3,2.1c-1.6,0-2.7-0.7-3.3-2.1c-1.4-2.3-2-5-1.9-7.9c0-3,0.8-6.4,2.5-10.3c0.8-2,2.1-2.9,3.8-2.9
		C-224.6,408.7-224.2,409.7-224.8,411.3z"/>
	<path class="st1" d="M-204.7,418.5c-0.5,2-0.7,3.7-0.7,5c0.1,3.7,1.2,5.7,3.2,5.8c2.8-0.1,4.2-2.5,4.3-7.1
		c-0.1-0.6-0.3-1.6-0.7-2.9c0-0.3,0-0.5,0-0.7c0-1.3,0.7-2,2.2-2.2c1.1,0,1.8,0.7,2.1,2.1c0.3,1.6,0.4,3.1,0.4,4.6
		c-0.1,1.2-0.2,2.4-0.3,3.5c-0.1,1.2-0.2,2.4-0.4,3.5c-0.4,1.1-1,1.7-1.9,1.7c-0.8-0.1-1.1-0.6-0.8-1.4c0.1-0.6,0.2-1.1,0.4-1.5
		c-1,1.8-2.8,2.7-5.4,2.8c-4.3-0.5-6.6-3.1-7.1-7.8c-0.1-0.6,0-1.4,0.1-2.2c0.1-0.8,0.3-1.9,0.7-3.1c0.4-1.5,1.2-2.2,2.4-2.1
		C-205.1,416.5-204.5,417.2-204.7,418.5z"/>
	<path class="st1" d="M-187.5,417.2v0.1c0.6-0.6,1.6-1,2.9-1.3c4.4,0.6,6.8,3.2,7.4,7.9c-0.4,4.6-2.9,7.2-7.7,7.5
		c-1.5,0-2.6-0.6-3.2-1.7c0.2,0.9-0.1,1.5-0.8,1.8c-1,0-1.7-0.6-2-1.7c-0.5-2-0.7-4.1-0.7-6.1c0-3.6,0.7-7.2,2.2-10.9
		c0.7-1.8,1.7-2.6,2.8-2.6c1.1,0.2,1.3,1.2,0.6,2.9C-186.9,415-187.5,416.3-187.5,417.2z M-184.4,418.6c-1.9,0.4-3,2.1-3.1,5.3
		c0,3.5,0.9,5.4,2.8,5.7c2.1-0.1,3.3-2,3.5-5.6C-181.3,420.7-182.3,418.9-184.4,418.6z"/>
	<path class="st1" d="M-161.8,422.1c-3.5,0.7-6.3,1.6-8.4,2.9c0.3,2.6,1.5,4.1,3.6,4.6c0.9,0.1,1.9-0.9,2.9-3.1
		c0.8-1.9,1.7-2.8,2.6-2.8c1.4,0.4,1.9,1.3,1.5,2.9c-1.4,3.2-3.8,4.8-7.1,4.9c-5.1-0.6-7.9-3.2-8.4-7.8c0.6-4.3,3.3-6.8,8.4-7.7
		c2.7,0.1,4.9,1.2,6.5,3.3C-159.2,421-159.8,421.9-161.8,422.1z M-170.5,422.5c2.6-1.1,4.8-1.7,6.5-1.8c-0.6-1.6-1.6-2.4-3.2-2.4
		C-169.1,419-170.2,420.4-170.5,422.5z"/>
	<path class="st1" d="M-149.4,416.4c2.7,0,4.8,1.1,6.4,3.2c1,2,0.6,3-1.1,3.2c-1.1,0-1.9-0.6-2.4-1.7c-0.7-1.8-1.7-2.7-2.9-2.9
		c-2.3,0.5-3.6,2.5-3.8,6c0.2,3.2,1.4,5,3.6,5.6c1.4,0,2.5-1,3.2-3.1c0.4-1.3,1.1-2,2.1-2c1.3,0.4,1.7,1.4,1.1,3.1
		c-1.3,2.3-3.6,3.6-6.8,3.8c-4.6-0.4-7.1-2.9-7.2-7.5C-156.8,419.5-154.2,416.9-149.4,416.4z"/>
	<path class="st1" d="M-132.2,416.9c4.7,0.5,7.4,2.8,8.1,7.1c-0.7,4.6-3.3,7.2-7.9,7.5c-4.9-0.7-7.7-3.4-8.4-8.1
		C-140,419.5-137.3,417.3-132.2,416.9z M-132.2,418.7c-2.1,0.3-3.3,1.9-3.6,4.7c0.3,3.8,1.5,5.8,3.8,6c1.9-0.1,3.1-2,3.3-5.6
		C-129,420.6-130.2,418.9-132.2,418.7z"/>
	<path class="st1" d="M-116.4,417.5c0.7-0.6,1.6-1,2.6-1c5.4,0.2,8.2,3.4,8.5,9.6c-0.1,1.3-0.2,2.5-0.3,3.6c-0.4,1.3-1.1,2-2.2,2
		c-1.4-0.1-2-0.7-2-2c0.1-1.5,0.2-3.1,0.3-4.7c-0.3-3.8-1.7-5.9-4.2-6.1c-2.6,0.4-3.8,2.4-3.6,6.1c-0.1,0.7,0,1.3,0.1,2.1
		c0.1,0.7,0.3,1.6,0.7,2.5c0.2,1.2-0.3,1.9-1.5,2.1c-1.6,0-2.5-0.7-2.8-2.1c-0.6-2.4-0.8-4.5-0.8-6.3c0.3-2,0.5-3.6,0.7-4.6
		c0.4-1.3,1.1-2,2.2-2.2C-117.9,416.6-117.2,416.9-116.4,417.5z"/>
</g>
</svg>
