<?xml version="1.0" encoding="utf-8"?>
<!-- Generator: Adobe Illustrator 19.0.0, SVG Export Plug-In . SVG Version: 6.00 Build 0)  -->
<svg version="1.1" id="图层_1" xmlns="http://www.w3.org/2000/svg" xmlns:xlink="http://www.w3.org/1999/xlink" x="0px" y="0px"
	 viewBox="0 0 20 20" style="enable-background:new 0 0 16 16;" xml:space="preserve">
<style type="text/css">
	.st0{fill:#808080;}
</style>
<g id="XMLID_6_">
	<g id="XMLID_38_">
		<path id="XMLID_39_" class="st0" d="M8,15.4c-4.1,0-7.4-3.3-7.4-7.4c0-4.1,3.3-7.4,7.4-7.4c4.1,0,7.4,3.3,7.4,7.4
			C15.4,12.1,12.1,15.4,8,15.4L8,15.4z M8,1.2c-3.7,0-6.8,3-6.8,6.8c0,3.7,3,6.8,6.8,6.8c3.7,0,6.8-3,6.8-6.8
			C14.8,4.3,11.7,1.2,8,1.2L8,1.2z"/>
	</g>
	<g id="XMLID_36_">
		<path id="XMLID_37_" class="st0" d="M8,8.3C7.8,8.3,7.7,8.2,7.7,8V3.4c0-0.2,0.1-0.3,0.3-0.3c0.2,0,0.3,0.1,0.3,0.3V8
			C8.3,8.2,8.2,8.3,8,8.3L8,8.3z"/>
	</g>
	<g id="XMLID_27_">
		<g id="XMLID_34_">
			<path id="XMLID_35_" class="st0" d="M10.8,3.5c-0.1,0-0.1,0-0.2,0c-0.1-0.1-0.2-0.3-0.1-0.4l0.2-0.3c0.1-0.1,0.3-0.2,0.4-0.1
				c0.1,0.1,0.2,0.3,0.1,0.4L11,3.4C11,3.5,10.9,3.5,10.8,3.5L10.8,3.5z"/>
		</g>
		<g id="XMLID_32_">
			<path id="XMLID_33_" class="st0" d="M5.1,13.4c-0.1,0-0.1,0-0.2,0c-0.1-0.1-0.2-0.3-0.1-0.4L5,12.6c0.1-0.1,0.3-0.2,0.4-0.1
				c0.1,0.1,0.2,0.3,0.1,0.4l-0.2,0.3C5.3,13.3,5.2,13.4,5.1,13.4L5.1,13.4z"/>
		</g>
		<g id="XMLID_30_">
			<path id="XMLID_31_" class="st0" d="M13.1,11.2c-0.1,0-0.1,0-0.2,0L12.6,11c-0.1-0.1-0.2-0.3-0.1-0.4c0.1-0.1,0.3-0.2,0.4-0.1
				l0.3,0.2c0.1,0.1,0.2,0.3,0.1,0.4C13.3,11.2,13.2,11.2,13.1,11.2L13.1,11.2z"/>
		</g>
		<g id="XMLID_28_">
			<path id="XMLID_29_" class="st0" d="M3.2,5.5c-0.1,0-0.1,0-0.2,0L2.8,5.3C2.6,5.2,2.6,5.1,2.6,4.9c0.1-0.1,0.3-0.2,0.4-0.1L3.4,5
				c0.1,0.1,0.2,0.3,0.1,0.4C3.4,5.5,3.3,5.5,3.2,5.5L3.2,5.5z"/>
		</g>
	</g>
	<g id="XMLID_18_">
		<g id="XMLID_25_">
			<path id="XMLID_26_" class="st0" d="M5.2,3.5C5.1,3.5,5,3.5,5,3.4L4.8,3.1c-0.1-0.1,0-0.3,0.1-0.4c0.1-0.1,0.3,0,0.4,0.1l0.2,0.3
				c0.1,0.1,0,0.3-0.1,0.4C5.3,3.5,5.3,3.5,5.2,3.5L5.2,3.5z"/>
		</g>
		<g id="XMLID_23_">
			<path id="XMLID_24_" class="st0" d="M10.9,13.4c-0.1,0-0.2-0.1-0.3-0.2l-0.2-0.3c-0.1-0.1,0-0.3,0.1-0.4c0.1-0.1,0.3,0,0.4,0.1
				l0.2,0.3c0.1,0.1,0,0.3-0.1,0.4C11,13.4,11,13.4,10.9,13.4L10.9,13.4z"/>
		</g>
		<g id="XMLID_21_">
			<path id="XMLID_22_" class="st0" d="M2.9,11.2c-0.1,0-0.2-0.1-0.3-0.2c-0.1-0.1,0-0.3,0.1-0.4l0.3-0.2c0.1-0.1,0.3,0,0.4,0.1
				c0.1,0.1,0,0.3-0.1,0.4l-0.3,0.2C3,11.2,3,11.2,2.9,11.2L2.9,11.2z"/>
		</g>
		<g id="XMLID_19_">
			<path id="XMLID_20_" class="st0" d="M12.8,5.5c-0.1,0-0.2-0.1-0.3-0.2c-0.1-0.1,0-0.3,0.1-0.4l0.3-0.2c0.1-0.1,0.3,0,0.4,0.1
				c0.1,0.1,0,0.3-0.1,0.4l-0.3,0.2C12.9,5.5,12.8,5.5,12.8,5.5L12.8,5.5z"/>
		</g>
	</g>
	<g id="XMLID_9_">
		<g id="XMLID_16_">
			<path id="XMLID_17_" class="st0" d="M2.5,8.3L2.5,8.3l-0.4,0C2,8.3,1.8,8.2,1.8,8c0-0.2,0.1-0.3,0.3-0.3h0l0.4,0
				c0.2,0,0.3,0.1,0.3,0.3C2.8,8.2,2.6,8.3,2.5,8.3L2.5,8.3z"/>
		</g>
		<g id="XMLID_14_">
			<path id="XMLID_15_" class="st0" d="M13.5,8.3c-0.2,0-0.3-0.1-0.3-0.3c0-0.2,0.1-0.3,0.3-0.3l0.4,0c0,0,0,0,0,0
				c0.2,0,0.3,0.1,0.3,0.3c0,0.2-0.1,0.3-0.3,0.3L13.5,8.3C13.5,8.3,13.5,8.3,13.5,8.3L13.5,8.3z"/>
		</g>
		<g id="XMLID_12_">
			<path id="XMLID_13_" class="st0" d="M8,14.2C8,14.2,8,14.2,8,14.2c-0.2,0-0.3-0.1-0.3-0.3l0-0.4c0-0.2,0.1-0.3,0.3-0.3
				c0,0,0,0,0,0c0.2,0,0.3,0.1,0.3,0.3l0,0.4C8.3,14,8.2,14.2,8,14.2L8,14.2z"/>
		</g>
		<g id="XMLID_10_">
			<path id="XMLID_11_" class="st0" d="M8,2.8c-0.2,0-0.3-0.1-0.3-0.3V2.1C7.7,2,7.8,1.8,8,1.8c0.2,0,0.3,0.1,0.3,0.3v0.4
				C8.3,2.6,8.2,2.8,8,2.8L8,2.8z"/>
		</g>
	</g>
	<g id="XMLID_7_">
		<path id="XMLID_8_" class="st0" d="M6,10.3c-0.1,0-0.2,0-0.2-0.1c-0.1-0.1-0.1-0.3,0-0.5l1.9-1.9c0.1-0.1,0.3-0.1,0.5,0
			c0.1,0.1,0.1,0.3,0,0.5l-1.9,1.9C6.2,10.3,6.1,10.3,6,10.3L6,10.3z"/>
	</g>
</g>
</svg>
