<?xml version="1.0" encoding="utf-8"?>
<!-- Generated by IcoMoon.io -->
<!DOCTYPE svg PUBLIC "-//W3C//DTD SVG 1.1//EN" "http://www.w3.org/Graphics/SVG/1.1/DTD/svg11.dtd">
<svg version="1.1" xmlns="http://www.w3.org/2000/svg" xmlns:xlink="http://www.w3.org/1999/xlink" width="16" height="16" viewBox="0 0 16 16">
<path fill="#808080" d="M8 16c-4.432 0-8-3.568-8-8s3.568-8 8-8c4.432 0 8 3.568 8 8s-3.568 8-8 8v0zM8 0.649c-4 0-7.351 3.243-7.351 7.351 0 4 3.243 7.351 7.351 7.351 4 0 7.351-3.243 7.351-7.351 0-4-3.351-7.351-7.351-7.351v0z"></path>
<path fill="#808080" d="M8 8.324c-0.216 0-0.324-0.108-0.324-0.324v-4.973c0-0.216 0.108-0.324 0.324-0.324s0.324 0.108 0.324 0.324v4.973c0 0.216-0.108 0.324-0.324 0.324v0z"></path>
<path fill="#808080" d="M11.027 3.135c-0.108 0-0.108 0-0.216 0-0.108-0.108-0.216-0.324-0.108-0.432l0.216-0.324c0.108-0.108 0.324-0.216 0.432-0.108s0.216 0.324 0.108 0.432l-0.216 0.324c0 0.108-0.108 0.108-0.216 0.108v0z"></path>
<path fill="#808080" d="M4.865 13.838c-0.108 0-0.108 0-0.216 0-0.108-0.108-0.216-0.324-0.108-0.432l0.216-0.432c0.108-0.108 0.324-0.216 0.432-0.108s0.216 0.324 0.108 0.432l-0.216 0.324c0 0.108-0.108 0.216-0.216 0.216v0z"></path>
<path fill="#808080" d="M13.514 11.459c-0.108 0-0.108 0-0.216 0l-0.324-0.216c-0.108-0.108-0.216-0.324-0.108-0.432s0.324-0.216 0.432-0.108l0.324 0.216c0.108 0.108 0.216 0.324 0.108 0.432 0 0.108-0.108 0.108-0.216 0.108v0z"></path>
<path fill="#808080" d="M2.811 5.297c-0.108 0-0.108 0-0.216 0l-0.216-0.216c-0.216-0.108-0.216-0.216-0.216-0.432 0.108-0.108 0.324-0.216 0.432-0.108l0.432 0.216c0.108 0.108 0.216 0.324 0.108 0.432s-0.216 0.108-0.324 0.108v0z"></path>
<path fill="#808080" d="M4.973 3.135c-0.108 0-0.216 0-0.216-0.108l-0.216-0.324c-0.108-0.108 0-0.324 0.108-0.432s0.324 0 0.432 0.108l0.216 0.324c0.108 0.108 0 0.324-0.108 0.432-0.108 0-0.108 0-0.216 0v0z"></path>
<path fill="#808080" d="M11.135 13.838c-0.108 0-0.216-0.108-0.324-0.216l-0.216-0.324c-0.108-0.108 0-0.324 0.108-0.432s0.324 0 0.432 0.108l0.216 0.324c0.108 0.108 0 0.324-0.108 0.432 0 0.108 0 0.108-0.108 0.108v0z"></path>
<path fill="#808080" d="M2.486 11.459c-0.108 0-0.216-0.108-0.324-0.216s0-0.324 0.108-0.432l0.324-0.216c0.108-0.108 0.324 0 0.432 0.108s0 0.324-0.108 0.432l-0.324 0.216c0 0.108 0 0.108-0.108 0.108v0z"></path>
<path fill="#808080" d="M13.189 5.297c-0.108 0-0.216-0.108-0.324-0.216s0-0.324 0.108-0.432l0.324-0.216c0.108-0.108 0.324 0 0.432 0.108s0 0.324-0.108 0.432l-0.324 0.216c0 0.108-0.108 0.108-0.108 0.108v0z"></path>
<path fill="#808080" d="M2.054 8.324v0h-0.432c-0.108 0-0.324-0.108-0.324-0.324s0.108-0.324 0.324-0.324v0h0.432c0.216 0 0.324 0.108 0.324 0.324s-0.216 0.324-0.324 0.324v0z"></path>
<path fill="#808080" d="M13.946 8.324c-0.216 0-0.324-0.108-0.324-0.324s0.108-0.324 0.324-0.324h0.432c0 0 0 0 0 0 0.216 0 0.324 0.108 0.324 0.324s-0.108 0.324-0.324 0.324h-0.432c0 0 0 0 0 0v0z"></path>
<path fill="#808080" d="M8 14.703c0 0 0 0 0 0-0.216 0-0.324-0.108-0.324-0.324v-0.432c0-0.216 0.108-0.324 0.324-0.324 0 0 0 0 0 0 0.216 0 0.324 0.108 0.324 0.324v0.432c0 0.108-0.108 0.324-0.324 0.324v0z"></path>
<path fill="#808080" d="M8 2.378c-0.216 0-0.324-0.108-0.324-0.324v-0.432c0-0.108 0.108-0.324 0.324-0.324s0.324 0.108 0.324 0.324v0.432c0 0.108-0.108 0.324-0.324 0.324v0z"></path>
<path fill="#808080" d="M5.838 10.486c-0.108 0-0.216 0-0.216-0.108-0.108-0.108-0.108-0.324 0-0.541l2.054-2.054c0.108-0.108 0.324-0.108 0.541 0 0.108 0.108 0.108 0.324 0 0.541l-2.054 2.054c-0.108 0.108-0.216 0.108-0.324 0.108v0z"></path>
</svg>
